<?xml version="1.0" encoding="utf-8"?>
<!-- Generator: Adobe Illustrator 26.3.1, SVG Export Plug-In . SVG Version: 6.00 Build 0)  -->
<svg version="1.1" id="Слой_1" xmlns="http://www.w3.org/2000/svg" xmlns:xlink="http://www.w3.org/1999/xlink" x="0px" y="0px"
	 viewBox="0 0 1320 100" style="enable-background:new 0 0 1320 100;" xml:space="preserve">
<style type="text/css">
	.st0{fill:url(#SVGID_1_);}
	.st1{fill-rule:evenodd;clip-rule:evenodd;fill:#0D353E;}
	.st2{fill-rule:evenodd;clip-rule:evenodd;fill:url(#SVGID_00000133487154955871186500000004567144402666441093_);}
	.st3{fill-rule:evenodd;clip-rule:evenodd;fill:url(#SVGID_00000163074656363005761190000018394095792799068345_);}
	.st4{fill-rule:evenodd;clip-rule:evenodd;fill:url(#SVGID_00000072266122032364654700000004211692190555279263_);}
	.st5{fill-rule:evenodd;clip-rule:evenodd;fill:url(#SVGID_00000166662461105726815990000016331518752715006611_);}
	.st6{fill-rule:evenodd;clip-rule:evenodd;fill:url(#SVGID_00000062887886264345073730000003157689502425350323_);}
	.st7{fill-rule:evenodd;clip-rule:evenodd;fill:url(#SVGID_00000014609451807850959260000012681743488861046413_);}
	.st8{fill-rule:evenodd;clip-rule:evenodd;fill:#FFFFFF;}
	.st9{fill:#B2E5EE;}
	.st10{fill-rule:evenodd;clip-rule:evenodd;fill:#B2E5EE;}
</style>
<linearGradient id="SVGID_1_" gradientUnits="userSpaceOnUse" x1="1320.0022" y1="51.9976" x2="2.181928e-03" y2="51.998" gradientTransform="matrix(1 0 0 -1 0 102)">
	<stop  offset="0" style="stop-color:#23555F"/>
	<stop  offset="1" style="stop-color:#145561"/>
</linearGradient>
<path class="st0" d="M25,0h1270c13.8,0,25,11.2,25,25v50c0,13.8-11.2,25-25,25H25C11.2,100,0,88.8,0,75V25C0,11.2,11.2,0,25,0z"/>
<path class="st1" d="M288,62.5c0-9.9-6.7-16.6-16.7-16.6c-3.2,0-6.3,0.9-8.8,2.4c-0.1-0.1-0.1-0.1-0.2-0.2c-0.5-0.4-3.5-2.3-7.7-2.3
	c-1.8,0-3.4,0.4-4.8,1c-0.6-0.2-1.2-0.3-1.8-0.3h-7.4c-2.1,0-3.8,1.2-4.7,2.9c-3.1-2.2-7-3.6-11.4-3.6c-3,0-5.8,0.6-8.3,1.7
	c2.2-2.8,3.5-6.2,3.5-10c0-9.5-7.8-16.6-18-16.6c-4.2,0-8,1.2-11,3.2v0c-0.6-0.5-4.2-3.2-10.5-3.2c-4.8,0-9.2,2-12.3,5.2
	c-2.8-3.4-7.4-5.2-11.9-5.2c-1.5,0-3.1,0.3-4.6,0.9c-0.5-0.2-1.1-0.3-1.6-0.3h-7.4c-1.8,0-3.5,0.9-4.4,2.4c-2.7-2-6.1-3-9.6-3
	c-1.5,0-3.1,0.3-4.6,0.9c-0.5-0.2-1.1-0.3-1.6-0.3h-7.4c-0.9,0-1.8,0.3-2.5,0.7c-0.7-0.4-1.6-0.7-2.5-0.7h-7.4
	c-0.6,0-1.1,0.1-1.6,0.3c-1.7-0.6-3.5-0.9-5.4-0.9c-4.4,0-8.4,1.8-11.2,4.7c-2.4-3-6.2-4.7-10.8-4.7c-2.4,0-4.7,0.7-6.9,2
	c-2.2-1.3-4.8-2-7.7-2c-1.5,0-3.1,0.3-4.6,0.9c-0.5-0.2-1.1-0.3-1.6-0.3h-7.4c-2.9,0-5.3,2.4-5.3,5.3v21.4c0,2.9,2.4,5.3,5.3,5.3
	h7.4c1.4,0,2.6-0.5,3.6-1.4c0.9,0.9,2.2,1.4,3.6,1.4h7.4c1.4,0,2.6-0.5,3.6-1.4c0.9,0.9,2.2,1.4,3.6,1.4h7.4c1.8,0,3.5-1,4.4-2.4
	c2.6,1.9,5.8,3,9.2,3c1.8,0,3.6-0.3,5.3-0.9c0.6,0.2,1.2,0.3,1.8,0.3h7.3c0.9,0,1.8-0.3,2.5-0.7c0.7,0.4,1.6,0.7,2.5,0.7h7.4
	c1.7,0,3.1-0.8,4.1-2c1,1.2,2.4,2,4.1,2h7.4c0.8,0,1.6-0.2,2.3-0.5c0.7,0.3,1.5,0.5,2.3,0.5h7.4c1.7,0,3.1-0.8,4.1-2
	c1,1.2,2.4,2,4.1,2h7.4c2,0,3.7-1.1,4.6-2.8c0.9,0.6,1.8,1.2,2.8,1.7c-0.8,1.5-1.3,3.2-1.4,4.9c-4.1,0.4-7.2,3.9-7.2,8.1
	c0,3.8,2.7,7,6.2,7.9c0.3,0.6,0.7,1.1,1.1,1.6c0.5,0.4,4.8,4.3,11.9,4.3c6.3,0,10.1-1.9,12.3-4.3c2.2,2.7,5.5,4.3,9.7,4.3
	c4.2,0,7.4-1.7,8-2c0.3-0.2,0.6-0.4,0.9-0.7c2.9,1.7,6.4,2.7,10.3,2.7c4.4,0,8.3-1.3,11.4-3.6c0.9,1.7,2.6,2.9,4.7,2.9h7.4
	c2.9,0,5.3-2.4,5.3-5.3v-9.9c0.3,0.3,0.7,0.5,1.1,0.7c0.8,8.5,8.1,15.1,17,15.1c8.9,0,13.4-4.4,15.6-8.2c0.8-1.3,0.9-2.8,0.5-4.2
	c-0.1-0.2-0.1-0.4-0.2-0.5c0.3-0.6,0.6-1.2,0.7-1.8C288,63.8,288,63.2,288,62.5z"/>
<linearGradient id="SVGID_00000142152846205706781920000011064221443973516457_" gradientUnits="userSpaceOnUse" x1="169.326" y1="39.4948" x2="282.734" y2="39.4948" gradientTransform="matrix(1 0 0 -1 0 102)">
	<stop  offset="0" style="stop-color:#2DD4DF"/>
	<stop  offset="1" style="stop-color:#1FB8E2"/>
</linearGradient>
<path style="fill-rule:evenodd;clip-rule:evenodd;fill:url(#SVGID_00000142152846205706781920000011064221443973516457_);" d="
	M176.5,58.1c0,3.2,2.2,4.7,4.3,5.8c2.4,1.2,4.8,1.4,4.8,2.9c0,1.4-1.2,1.5-2.3,1.5c-2.4,0-5.3-2.5-5.3-2.5l-3,5c0,0,3.1,2.9,8.2,2.9
	c4.4,0,10.1-1,10.1-7.3c0-4.4-3.7-6-6.5-6.8c-1.8-0.6-3.3-0.9-3.3-2c0-1,0.7-1.3,2.3-1.3c2.2,0,4.7,1.3,4.7,1.3l2.4-4.8
	c0,0-3-1.7-7.2-1.7C180.2,51.2,176.5,53.7,176.5,58.1z"/>
<linearGradient id="SVGID_00000144320144069361840010000017251231034650130058_" gradientUnits="userSpaceOnUse" x1="169.326" y1="43.161" x2="282.734" y2="43.161" gradientTransform="matrix(1 0 0 -1 0 102)">
	<stop  offset="0" style="stop-color:#2DD4DF"/>
	<stop  offset="1" style="stop-color:#1FB8E2"/>
</linearGradient>
<path style="fill-rule:evenodd;clip-rule:evenodd;fill:url(#SVGID_00000144320144069361840010000017251231034650130058_);" d="
	M197.9,43.9v8h-3.1v5.6h3.1v8.2c0,3.8,1.4,8.2,7.3,8.2c3,0,5.4-1.3,5.4-1.3l-1.8-6c0,0-0.9,0.7-1.8,0.7c-1.2,0-1.7-1-1.7-3v-6.8h4.5
	v-5.6h-4.5v-8H197.9z"/>
<linearGradient id="SVGID_00000114787354012459099800000001396751131172006572_" gradientUnits="userSpaceOnUse" x1="169.326" y1="39.4948" x2="282.734" y2="39.4948" gradientTransform="matrix(1 0 0 -1 0 102)">
	<stop  offset="0" style="stop-color:#2DD4DF"/>
	<stop  offset="1" style="stop-color:#1FB8E2"/>
</linearGradient>
<path style="fill-rule:evenodd;clip-rule:evenodd;fill:url(#SVGID_00000114787354012459099800000001396751131172006572_);" d="
	M211.6,62.5c0,6.6,5.2,11.3,12.9,11.3c7.4,0,12.7-4.7,12.7-11.3c0-6.7-5.7-11.3-12.7-11.3C217.2,51.2,211.6,55.9,211.6,62.5z
	 M219.4,62.5c0-3,2.2-5,5-5c2.8,0,5,2.1,5,5c0,2.9-2.1,5-5,5C221.4,67.5,219.4,65.4,219.4,62.5z"/>
<linearGradient id="SVGID_00000010306301855987717300000016067589290053159296_" gradientUnits="userSpaceOnUse" x1="169.326" y1="39.807" x2="282.734" y2="39.807" gradientTransform="matrix(1 0 0 -1 0 102)">
	<stop  offset="0" style="stop-color:#2DD4DF"/>
	<stop  offset="1" style="stop-color:#1FB8E2"/>
</linearGradient>
<path style="fill-rule:evenodd;clip-rule:evenodd;fill:url(#SVGID_00000010306301855987717300000016067589290053159296_);" d="
	M248,54.9L248,54.9l-0.1-3.1h-7.4v21.4h7.4V61.9c0-0.5,0.5-4.3,4.4-4.3c2.5,0,3.8,1.2,3.8,1.2l3.1-6.2c0,0-1.9-1.3-4.7-1.3
	C250.4,51.2,248,54.9,248,54.9z"/>
<linearGradient id="SVGID_00000031896872737108932790000006341435365440653731_" gradientUnits="userSpaceOnUse" x1="169.326" y1="39.4948" x2="282.734" y2="39.4948" gradientTransform="matrix(1 0 0 -1 0 102)">
	<stop  offset="0" style="stop-color:#2DD4DF"/>
	<stop  offset="1" style="stop-color:#1FB8E2"/>
</linearGradient>
<path style="fill-rule:evenodd;clip-rule:evenodd;fill:url(#SVGID_00000031896872737108932790000006341435365440653731_);" d="
	M259.5,62.5c0,6.2,5.3,11.3,11.7,11.3c4.8,0,8.7-1.5,11.1-5.6l-5.3-2.7c-1.8,1.9-2.8,2.4-5.2,2.4c-1.9,0-4.6-1.1-4.6-4.4h15.5
	c0-0.2,0-0.7,0-1c0-7.5-5-11.3-11.5-11.3C264.8,51.2,259.5,56.3,259.5,62.5z M271.5,56c2.2,0,3.7,1.2,4,3.5h-8.1
	C267.5,57.5,268.9,56,271.5,56z"/>
<linearGradient id="SVGID_00000051367266346722803300000006871938519143864216_" gradientUnits="userSpaceOnUse" x1="169.326" y1="36.6517" x2="282.734" y2="36.6517" gradientTransform="matrix(1 0 0 -1 0 102)">
	<stop  offset="0" style="stop-color:#2DD4DF"/>
	<stop  offset="1" style="stop-color:#1FB8E2"/>
</linearGradient>
<path style="fill-rule:evenodd;clip-rule:evenodd;fill:url(#SVGID_00000051367266346722803300000006871938519143864216_);" d="
	M169.3,65.3c0,1.6,1.3,2.8,2.8,2.8c1.6,0,2.8-1.3,2.8-2.8s-1.3-2.8-2.8-2.8C170.6,62.5,169.3,63.8,169.3,65.3z"/>
<path class="st8" d="M45.3,26.9h7.4v2.2h0.1c1.7-1.7,3.8-2.9,6.1-2.9c2.8,0,6,1,7.5,3.9c2.2-2.7,4.7-3.9,7.1-3.9
	c3.9,0,8.3,2,8.3,7.9v14.1h-7.4V36.2c0-2.1-1.1-4-3.7-4c-2.3,0-3.3,1.7-3.4,3.3v12.7h-7.4V36.2c0-2.1-1.1-4-3.7-4
	c-2.5,0-3.4,1.9-3.4,3.6v12.5h-7.4V26.9z"/>
<path class="st8" d="M97.6,42.6c2.9,0,5-2.1,5-5c0-3-2.2-5-5-5c-2.8,0-5,2.1-5,5C92.6,40.5,94.6,42.6,97.6,42.6z M95.4,26.3
	c2.9,0,5.2,1,7,2.7v-2h7.4v21.4h-7.3v-2.4h-0.1c-1.6,1.8-4.1,3-7,3c-6.2,0-10.6-5-10.6-11.3C84.8,31.3,89.2,26.3,95.4,26.3z"/>
<path class="st8" d="M114.8,26.9h7.4v2.2h0.1c1.7-1.7,3.8-2.9,6.1-2.9c3.9,0,9.4,2,9.4,7.9v14.1h-7.4V36.2c0-2.1-1.5-4.2-3.8-4.2
	c-2.2,0-4.4,2-4.4,4.2v12.1h-7.4V26.9z"/>
<path class="st8" d="M142.3,26.9h7.4v2.2h0.1c1.7-1.7,3.8-2.9,6.1-2.9c3.9,0,9.4,2,9.4,7.9v14.1h-7.4V36.2c0-2.1-1.5-4.2-3.8-4.2
	c-2.2,0-4.4,2-4.4,4.2v12.1h-7.4V26.9z"/>
<path class="st8" d="M176.1,37.6c0,3,2.3,5.3,5.1,5.3c2.2,0,3.6-1,3.6-1l2.5,5.1c0,0-2.4,1.9-7.2,1.9c-6.2,0-11.8-5-11.8-11.2
	c0-6.3,5.6-11.4,11.8-11.4c4.7,0,7.2,2,7.2,2l-2.5,5c0,0-1.4-1-3.6-1C178.4,32.3,176.1,34.6,176.1,37.6z"/>
<path class="st8" d="M201.6,42.6c2.9,0,5-2.1,5-5c0-3-2.2-5-5-5c-2.8,0-5,2.1-5,5C196.6,40.5,198.6,42.6,201.6,42.6z M201.6,26.3
	c7.1,0,12.7,4.7,12.7,11.3c0,6.6-5.4,11.3-12.7,11.3c-7.7,0-12.9-4.7-12.9-11.3C188.8,30.9,194.4,26.3,201.6,26.3z"/>
<path class="st9" d="M396.4,59h-7.9V41.4h7.8c1.7,0,3,0.4,3.9,1.2c1,0.8,1.5,1.9,1.5,3.2c0,1-0.3,1.8-1,2.5
	c-0.6,0.7-1.4,1.2-2.4,1.3v0.1c1.2,0.1,2.2,0.5,3,1.3c0.8,0.8,1.2,1.8,1.2,2.9c0,1.6-0.5,2.8-1.6,3.7C399.7,58.5,398.3,59,396.4,59z
	 M392.2,44.1v4.6h2.8c1,0,1.7-0.2,2.3-0.6c0.5-0.4,0.8-1,0.8-1.7c0-0.7-0.2-1.3-0.7-1.6c-0.5-0.4-1.1-0.6-2-0.6H392.2z M392.2,56.3
	h3.3c1.1,0,1.9-0.2,2.4-0.7c0.6-0.4,0.8-1.1,0.8-1.9c0-0.8-0.3-1.4-0.9-1.9c-0.6-0.4-1.4-0.6-2.5-0.6h-3.2V56.3z M416.9,45.6V59
	h-3.4v-2.4h-0.1c-0.3,0.8-0.9,1.5-1.6,2c-0.7,0.4-1.6,0.7-2.6,0.7c-1.5,0-2.7-0.4-3.6-1.3c-0.9-0.9-1.3-2.1-1.3-3.7v-8.6h3.6v7.9
	c0,0.9,0.2,1.6,0.7,2.1c0.5,0.5,1.1,0.7,2,0.7c0.8,0,1.5-0.3,2-0.8c0.5-0.6,0.8-1.3,0.8-2.2v-7.7H416.9z M421,63.9
	c-0.7,0-1.2,0-1.4,0v-2.8c0.1,0,0.4,0,0.8,0c0.7,0,1.2-0.1,1.6-0.4c0.4-0.2,0.7-0.6,0.8-1.2l0.1-0.5l-4.7-13.5h3.9l2.9,10.5h0.1
	l2.9-10.5h3.8l-4.7,13.7c-0.6,1.7-1.3,2.9-2.2,3.6C424,63.6,422.7,63.9,421,63.9z M443.7,56.6c0.8,0,1.5-0.2,2.1-0.7
	c0.6-0.5,0.9-1.1,0.9-1.8v-1l-2.8,0.2c-0.7,0-1.3,0.2-1.7,0.5c-0.4,0.3-0.6,0.7-0.6,1.2c0,0.5,0.2,0.9,0.6,1.2
	C442.5,56.4,443,56.6,443.7,56.6z M442.5,59.2c-1.3,0-2.4-0.4-3.2-1.1c-0.9-0.7-1.3-1.7-1.3-2.9c0-1.2,0.5-2.2,1.4-2.8
	c0.9-0.7,2.2-1.1,3.9-1.2l3.4-0.2V50c0-0.6-0.2-1.1-0.6-1.5c-0.4-0.4-1-0.5-1.7-0.5c-0.6,0-1.2,0.2-1.6,0.5
	c-0.4,0.3-0.7,0.7-0.8,1.2h-3.3c0-1.3,0.6-2.3,1.7-3.1c1.1-0.8,2.4-1.2,4.1-1.2c1.7,0,3.1,0.4,4.2,1.2c1,0.8,1.6,1.9,1.6,3.2V59
	h-3.4v-2.1h-0.1c-0.4,0.7-0.9,1.2-1.7,1.6C444.2,59,443.4,59.2,442.5,59.2z M452.6,59V45.6h3.4V48h0.1c0.8-1.7,2.2-2.6,4.3-2.6
	c1.5,0,2.7,0.4,3.5,1.3c0.9,0.9,1.3,2.1,1.3,3.7V59h-3.6v-7.9c0-0.9-0.2-1.6-0.7-2.1c-0.5-0.5-1.1-0.7-1.9-0.7
	c-0.9,0-1.5,0.3-2.1,0.8c-0.5,0.6-0.8,1.3-0.8,2.2V59H452.6z M472.6,59.2c-1.7,0-3-0.6-4-1.9c-1-1.2-1.5-2.9-1.5-5
	c0-2.1,0.5-3.8,1.5-5c1-1.2,2.3-1.9,4-1.9c1,0,1.8,0.2,2.5,0.7c0.7,0.4,1.3,1,1.6,1.8h0.1v-7.3h3.6V59h-3.5v-2.3h-0.1
	c-0.3,0.7-0.9,1.3-1.6,1.8C474.4,58.9,473.5,59.2,472.6,59.2z M473.7,48.3c-0.9,0-1.7,0.4-2.2,1.1c-0.5,0.7-0.8,1.7-0.8,2.9
	c0,1.2,0.3,2.2,0.8,2.9c0.6,0.7,1.3,1.1,2.2,1.1c0.9,0,1.7-0.4,2.2-1.1c0.6-0.7,0.8-1.7,0.8-2.9c0-1.2-0.3-2.2-0.8-2.9
	C475.4,48.6,474.7,48.3,473.7,48.3z M488,49.5c0-1.3,0.5-2.3,1.5-3c1-0.8,2.4-1.1,4.1-1.1c1.7,0,3,0.4,4,1.2c1,0.8,1.5,1.8,1.6,3.1
	h-3.3c0-0.5-0.3-0.9-0.7-1.3c-0.4-0.3-1-0.5-1.6-0.5c-0.6,0-1.2,0.1-1.6,0.4c-0.4,0.3-0.6,0.6-0.6,1c0,0.7,0.6,1.1,1.8,1.4l2.5,0.5
	c1.4,0.3,2.3,0.7,2.9,1.3c0.6,0.6,0.9,1.3,0.9,2.3c0,1.3-0.5,2.4-1.6,3.1c-1.1,0.8-2.5,1.2-4.3,1.2c-1.7,0-3.2-0.4-4.2-1.2
	c-1.1-0.8-1.6-1.8-1.7-3.1h3.5c0.1,0.6,0.4,1,0.8,1.3c0.4,0.3,1,0.5,1.8,0.5c0.7,0,1.3-0.1,1.7-0.4c0.4-0.3,0.6-0.6,0.6-1
	c0-0.4-0.1-0.6-0.4-0.8c-0.3-0.2-0.7-0.4-1.3-0.5l-2.5-0.6C489.2,52.8,488,51.5,488,49.5z M507.3,48c-0.8,0-1.5,0.3-2,0.8
	c-0.5,0.5-0.8,1.2-0.9,2.1h5.8c0-0.9-0.3-1.6-0.8-2.1S508.2,48,507.3,48z M510.2,54.9h3.3c-0.2,1.3-0.9,2.4-2,3.1
	c-1.1,0.8-2.5,1.2-4.1,1.2c-2,0-3.7-0.6-4.8-1.8c-1.2-1.2-1.8-2.9-1.8-5.1s0.6-3.8,1.7-5.1c1.2-1.3,2.7-1.9,4.7-1.9
	c1.9,0,3.5,0.6,4.6,1.8c1.1,1.2,1.7,2.8,1.7,4.9v1.1h-9.3v0.2c0,1,0.3,1.8,0.9,2.4c0.6,0.6,1.3,0.9,2.3,0.9c0.7,0,1.3-0.1,1.7-0.4
	C509.7,55.8,510.1,55.4,510.2,54.9z M515.7,59V40.5h3.6V59H515.7z M521.8,59V40.5h3.6V59H521.8z M533.3,59V45.6h3.6V59H533.3z
	 M535.1,44.1c-0.5,0-1-0.2-1.4-0.5c-0.4-0.4-0.6-0.8-0.6-1.3c0-0.5,0.2-1,0.6-1.3c0.4-0.4,0.8-0.5,1.4-0.5c0.5,0,1,0.2,1.4,0.5
	c0.4,0.3,0.6,0.8,0.6,1.3c0,0.5-0.2,1-0.6,1.3C536.1,43.9,535.7,44.1,535.1,44.1z M540.3,42.6h3.6v3h2.5v2.7h-2.5v6.5
	c0,1,0.5,1.5,1.6,1.5c0.4,0,0.6,0,0.9-0.1v2.6c-0.5,0.1-1.1,0.1-1.7,0.1c-1.6,0-2.7-0.3-3.3-0.9c-0.7-0.6-1-1.5-1-2.8v-7.1h-1.8
	v-2.7h1.8V42.6z M554.2,48c-0.8,0-1.5,0.3-2,0.8c-0.5,0.5-0.8,1.2-0.9,2.1h5.8c0-0.9-0.3-1.6-0.8-2.1S555.1,48,554.2,48z
	 M557.1,54.9h3.3c-0.2,1.3-0.8,2.4-2,3.1c-1.1,0.8-2.5,1.2-4.1,1.2c-2,0-3.7-0.6-4.8-1.8c-1.2-1.2-1.8-2.9-1.8-5.1s0.6-3.8,1.7-5.1
	c1.2-1.3,2.7-1.9,4.7-1.9c1.9,0,3.5,0.6,4.6,1.8c1.1,1.2,1.7,2.8,1.7,4.9v1.1h-9.3v0.2c0,1,0.3,1.8,0.9,2.4c0.6,0.6,1.3,0.9,2.3,0.9
	c0.7,0,1.3-0.1,1.7-0.4C556.6,55.8,557,55.4,557.1,54.9z M562.5,59V45.6h3.4V48h0.1c0.3-0.8,0.8-1.5,1.5-1.9
	c0.7-0.5,1.5-0.7,2.4-0.7c1,0,1.8,0.2,2.4,0.7c0.7,0.5,1.1,1.1,1.3,2h0.1c0.3-0.8,0.8-1.5,1.6-2c0.7-0.5,1.6-0.7,2.6-0.7
	c1.3,0,2.4,0.4,3.2,1.2c0.8,0.8,1.2,1.9,1.2,3.3V59h-3.6v-8.2c0-0.8-0.2-1.4-0.6-1.8c-0.4-0.4-0.9-0.6-1.7-0.6
	c-0.7,0-1.3,0.2-1.7,0.7c-0.4,0.5-0.6,1.1-0.6,1.8V59h-3.4v-8.4c0-0.7-0.2-1.3-0.6-1.7c-0.4-0.4-0.9-0.6-1.6-0.6
	c-0.7,0-1.3,0.2-1.7,0.7c-0.4,0.5-0.7,1.1-0.7,1.9V59H562.5z M584.3,49.5c0-1.3,0.5-2.3,1.5-3c1-0.8,2.4-1.1,4.1-1.1
	c1.7,0,3,0.4,4,1.2c1,0.8,1.5,1.8,1.6,3.1h-3.3c0-0.5-0.3-0.9-0.7-1.3c-0.4-0.3-1-0.5-1.6-0.5c-0.6,0-1.2,0.1-1.5,0.4
	c-0.4,0.3-0.6,0.6-0.6,1c0,0.7,0.6,1.1,1.8,1.4l2.5,0.5c1.3,0.3,2.3,0.7,2.9,1.3c0.6,0.6,0.9,1.3,0.9,2.3c0,1.3-0.5,2.4-1.6,3.1
	c-1.1,0.8-2.5,1.2-4.3,1.2c-1.8,0-3.2-0.4-4.2-1.2c-1.1-0.8-1.6-1.8-1.7-3.1h3.5c0.1,0.6,0.4,1,0.8,1.3c0.4,0.3,1,0.5,1.8,0.5
	c0.7,0,1.3-0.1,1.7-0.4c0.4-0.3,0.6-0.6,0.6-1c0-0.4-0.1-0.6-0.4-0.8c-0.3-0.2-0.7-0.4-1.3-0.5l-2.5-0.6
	C585.6,52.8,584.3,51.5,584.3,49.5z M603.2,59V45.6h3.6V59H603.2z M604.9,44.1c-0.5,0-1-0.2-1.4-0.5c-0.4-0.4-0.6-0.8-0.6-1.3
	c0-0.5,0.2-1,0.6-1.3c0.4-0.4,0.8-0.5,1.4-0.5c0.5,0,1,0.2,1.4,0.5c0.4,0.3,0.6,0.8,0.6,1.3c0,0.5-0.2,1-0.6,1.3
	C605.9,43.9,605.5,44.1,604.9,44.1z M609.2,59V45.6h3.4V48h0.1c0.8-1.7,2.2-2.6,4.3-2.6c1.5,0,2.7,0.4,3.5,1.3
	c0.9,0.9,1.3,2.1,1.3,3.7V59h-3.6v-7.9c0-0.9-0.2-1.6-0.7-2.1c-0.5-0.5-1.1-0.7-1.9-0.7c-0.9,0-1.5,0.3-2.1,0.8
	c-0.5,0.6-0.8,1.3-0.8,2.2V59H609.2z M624,49.5c0-1.3,0.5-2.3,1.5-3c1-0.8,2.4-1.1,4.1-1.1c1.7,0,3,0.4,4,1.2c1,0.8,1.5,1.8,1.6,3.1
	h-3.3c0-0.5-0.3-0.9-0.7-1.3c-0.4-0.3-1-0.5-1.6-0.5c-0.6,0-1.2,0.1-1.6,0.4c-0.4,0.3-0.6,0.6-0.6,1c0,0.7,0.6,1.1,1.8,1.4l2.5,0.5
	c1.4,0.3,2.3,0.7,2.9,1.3c0.6,0.6,0.9,1.3,0.9,2.3c0,1.3-0.5,2.4-1.6,3.1c-1.1,0.8-2.5,1.2-4.3,1.2c-1.8,0-3.2-0.4-4.2-1.2
	c-1.1-0.8-1.6-1.8-1.7-3.1h3.5c0.1,0.6,0.4,1,0.8,1.3c0.4,0.3,1,0.5,1.8,0.5c0.7,0,1.3-0.1,1.7-0.4c0.4-0.3,0.6-0.6,0.6-1
	c0-0.4-0.1-0.6-0.4-0.8c-0.3-0.2-0.7-0.4-1.3-0.5l-2.5-0.6C625.2,52.8,624,51.5,624,49.5z M638.3,42.6h3.6v3h2.5v2.7h-2.5v6.5
	c0,1,0.5,1.5,1.6,1.5c0.4,0,0.6,0,0.9-0.1v2.6c-0.5,0.1-1.1,0.1-1.7,0.1c-1.6,0-2.7-0.3-3.3-0.9c-0.7-0.6-1-1.5-1-2.8v-7.1h-1.8
	v-2.7h1.8V42.6z M651.5,56.6c0.8,0,1.5-0.2,2.1-0.7c0.6-0.5,0.9-1.1,0.9-1.8v-1l-2.8,0.2c-0.7,0-1.3,0.2-1.7,0.5
	c-0.4,0.3-0.6,0.7-0.6,1.2c0,0.5,0.2,0.9,0.6,1.2C650.3,56.4,650.8,56.6,651.5,56.6z M650.3,59.2c-1.3,0-2.4-0.4-3.2-1.1
	c-0.9-0.7-1.3-1.7-1.3-2.9c0-1.2,0.5-2.2,1.4-2.8c0.9-0.7,2.2-1.1,3.9-1.2l3.4-0.2V50c0-0.6-0.2-1.1-0.6-1.5c-0.4-0.4-1-0.5-1.7-0.5
	c-0.6,0-1.2,0.2-1.6,0.5c-0.4,0.3-0.7,0.7-0.8,1.2h-3.3c0-1.3,0.6-2.3,1.7-3.1c1.1-0.8,2.4-1.2,4.1-1.2c1.7,0,3.1,0.4,4.2,1.2
	c1,0.8,1.6,1.9,1.6,3.2V59h-3.4v-2.1h-0.1c-0.4,0.7-0.9,1.2-1.7,1.6C652,59,651.2,59.2,650.3,59.2z M660.4,59V45.6h3.4V48h0.1
	c0.8-1.7,2.2-2.6,4.3-2.6c1.5,0,2.7,0.4,3.5,1.3c0.9,0.9,1.3,2.1,1.3,3.7V59h-3.6v-7.9c0-0.9-0.2-1.6-0.7-2.1
	c-0.5-0.5-1.1-0.7-1.9-0.7c-0.9,0-1.5,0.3-2.1,0.8c-0.5,0.6-0.8,1.3-0.8,2.2V59H660.4z M676.3,42.6h3.6v3h2.5v2.7h-2.5v6.5
	c0,1,0.5,1.5,1.6,1.5c0.3,0,0.6,0,0.9-0.1v2.6c-0.5,0.1-1.1,0.1-1.7,0.1c-1.6,0-2.7-0.3-3.3-0.9c-0.7-0.6-1-1.5-1-2.8v-7.1h-1.8
	v-2.7h1.8V42.6z M684.5,59V40.5h3.6V59H684.5z M692.3,63.9c-0.7,0-1.2,0-1.4,0v-2.8c0.1,0,0.4,0,0.8,0c0.7,0,1.2-0.1,1.6-0.4
	c0.4-0.2,0.7-0.6,0.8-1.2l0.1-0.5l-4.7-13.5h3.9l2.9,10.5h0.1l2.9-10.5h3.8l-4.7,13.7c-0.6,1.7-1.3,2.9-2.2,3.6
	C695.3,63.6,694,63.9,692.3,63.9z M706.4,58.6c-0.4,0.4-0.8,0.6-1.4,0.6c-0.5,0-1-0.2-1.4-0.6c-0.4-0.4-0.6-0.8-0.6-1.4
	c0-0.5,0.2-1,0.6-1.4c0.4-0.4,0.8-0.6,1.4-0.6c0.5,0,1,0.2,1.4,0.6c0.4,0.4,0.6,0.8,0.6,1.4C707,57.7,706.8,58.2,706.4,58.6z
	 M717.1,43.5c1.5-1.6,3.6-2.5,6.2-2.5s4.7,0.8,6.2,2.5c1.5,1.6,2.3,3.9,2.3,6.7c0,2.8-0.8,5-2.3,6.7c-1.5,1.6-3.6,2.5-6.2,2.5
	c-2.6,0-4.7-0.8-6.2-2.5c-1.5-1.6-2.3-3.9-2.3-6.7C714.8,47.4,715.6,45.2,717.1,43.5z M726.8,45.8c-0.9-1.1-2-1.6-3.4-1.6
	c-1.4,0-2.6,0.5-3.5,1.6c-0.9,1.1-1.3,2.6-1.3,4.4c0,1.8,0.4,3.3,1.3,4.4c0.9,1.1,2,1.6,3.5,1.6c1.4,0,2.6-0.5,3.4-1.6
	c0.9-1.1,1.3-2.6,1.3-4.4C728,48.4,727.6,46.9,726.8,45.8z M733.9,59V45.6h3.4V48h0.1c0.8-1.7,2.2-2.6,4.3-2.6
	c1.5,0,2.7,0.4,3.5,1.3c0.9,0.9,1.3,2.1,1.3,3.7V59H743v-7.9c0-0.9-0.2-1.6-0.7-2.1c-0.5-0.5-1.1-0.7-1.9-0.7
	c-0.9,0-1.5,0.3-2.1,0.8c-0.5,0.6-0.8,1.3-0.8,2.2V59H733.9z M749,59V40.5h3.6V59H749z M756.8,63.9c-0.7,0-1.2,0-1.4,0v-2.8
	c0.1,0,0.4,0,0.8,0c0.7,0,1.2-0.1,1.6-0.4c0.4-0.2,0.7-0.6,0.8-1.2l0.1-0.5l-4.7-13.5h3.9l2.9,10.5h0.1l2.9-10.5h3.8L763,59.3
	c-0.6,1.7-1.3,2.9-2.2,3.6C759.8,63.6,758.5,63.9,756.8,63.9z M781.2,59.4c-1.9,0-3.5-0.5-4.7-1.5c-1.2-1-1.9-2.3-1.9-3.9h3.4
	c0.1,0.7,0.5,1.4,1,1.8c0.6,0.5,1.3,0.7,2.2,0.7c1,0,1.7-0.3,2.3-0.9c0.6-0.6,0.9-1.4,0.9-2.4c0-1-0.3-1.8-0.9-2.4s-1.4-0.9-2.3-0.9
	c-0.7,0-1.3,0.1-1.8,0.4c-0.5,0.3-1,0.7-1.3,1.2h-3.3l0.9-10.1h11.2v2.9h-8.3l-0.4,4.8h0.1c0.4-0.6,0.9-1.1,1.6-1.4
	c0.7-0.3,1.5-0.5,2.4-0.5c1.7,0,3.1,0.6,4.1,1.7c1.1,1.1,1.6,2.5,1.6,4.2c0,1.9-0.6,3.4-1.9,4.5C784.8,58.8,783.2,59.4,781.2,59.4z
	 M808,54.7c0,1.4-0.4,2.5-1.1,3.3c-0.7,0.8-1.7,1.2-2.9,1.2s-2.2-0.4-2.9-1.2c-0.7-0.8-1.1-1.9-1.1-3.3c0-1.4,0.4-2.5,1.1-3.3
	c0.7-0.8,1.7-1.2,2.9-1.2s2.2,0.4,2.9,1.2C807.6,52.2,808,53.3,808,54.7z M803,56.5c0.2,0.4,0.5,0.6,0.9,0.6c0.4,0,0.7-0.2,0.9-0.6
	c0.2-0.4,0.3-1,0.3-1.8c0-0.8-0.1-1.3-0.3-1.8c-0.2-0.4-0.5-0.6-0.9-0.6c-0.4,0-0.7,0.2-0.9,0.6c-0.2,0.4-0.3,1-0.3,1.8
	C802.7,55.4,802.8,56,803,56.5z M797.3,45.4c0,1.4-0.4,2.5-1.1,3.3c-0.7,0.8-1.7,1.2-2.9,1.2s-2.2-0.4-2.9-1.2
	c-0.7-0.8-1.1-1.9-1.1-3.3c0-1.4,0.4-2.5,1.1-3.3c0.7-0.8,1.7-1.2,2.9-1.2s2.2,0.4,2.9,1.2C797,42.9,797.3,44,797.3,45.4z
	 M792.4,47.2c0.2,0.4,0.5,0.6,0.9,0.6s0.7-0.2,0.9-0.6c0.2-0.4,0.3-1,0.3-1.8c0-0.8-0.1-1.3-0.3-1.8c-0.2-0.4-0.5-0.6-0.9-0.6
	c-0.4,0-0.7,0.2-0.9,0.6c-0.2,0.4-0.3,1-0.3,1.8S792.2,46.8,792.4,47.2z M793.7,59h-3.1l12.9-17.6h3.1L793.7,59z M823.2,59.3
	c-2.6,0-4.6-0.8-6.1-2.4c-1.5-1.6-2.2-3.9-2.2-6.7c0-2.8,0.7-5,2.2-6.7c1.5-1.6,3.5-2.4,6.1-2.4c1.4,0,2.7,0.3,3.8,0.8
	c1.1,0.6,2.1,1.3,2.8,2.3c0.7,1,1.1,2.2,1.2,3.5h-3.6c-0.2-1.1-0.6-1.9-1.4-2.6c-0.8-0.7-1.7-1-2.7-1c-1.4,0-2.5,0.5-3.3,1.6
	s-1.2,2.6-1.2,4.4c0,1.9,0.4,3.4,1.2,4.5c0.8,1.1,1.9,1.6,3.4,1.6c1.1,0,2-0.3,2.7-0.9c0.7-0.6,1.2-1.4,1.4-2.5h3.6
	c-0.2,2-1,3.5-2.4,4.7C827.1,58.7,825.3,59.3,823.2,59.3z M839.1,59.2c-2,0-3.7-0.6-4.8-1.9c-1.2-1.2-1.8-2.9-1.8-5.1
	c0-2.1,0.6-3.8,1.8-5.1c1.2-1.2,2.8-1.9,4.8-1.9c2,0,3.6,0.6,4.8,1.9c1.2,1.2,1.8,2.9,1.8,5.1c0,2.2-0.6,3.9-1.8,5.1
	C842.8,58.6,841.1,59.2,839.1,59.2z M836.9,55.4c0.5,0.7,1.3,1.1,2.2,1.1c0.9,0,1.7-0.4,2.2-1.1c0.5-0.7,0.8-1.8,0.8-3.1
	c0-1.3-0.3-2.3-0.8-3.1c-0.5-0.7-1.3-1.1-2.2-1.1c-0.9,0-1.7,0.4-2.2,1.1c-0.5,0.7-0.8,1.8-0.8,3.1
	C836.1,53.6,836.3,54.6,836.9,55.4z M847.6,59V45.6h3.4V48h0.1c0.3-0.8,0.8-1.5,1.5-1.9c0.7-0.5,1.5-0.7,2.4-0.7
	c1,0,1.8,0.2,2.4,0.7c0.7,0.5,1.1,1.1,1.3,2h0.1c0.3-0.8,0.8-1.5,1.6-2c0.7-0.5,1.6-0.7,2.6-0.7c1.3,0,2.4,0.4,3.2,1.2
	c0.8,0.8,1.2,1.9,1.2,3.3V59h-3.6v-8.2c0-0.8-0.2-1.4-0.6-1.8c-0.4-0.4-0.9-0.6-1.7-0.6c-0.7,0-1.3,0.2-1.7,0.7
	c-0.4,0.5-0.6,1.1-0.6,1.8V59h-3.4v-8.4c0-0.7-0.2-1.3-0.6-1.7c-0.4-0.4-0.9-0.6-1.6-0.6c-0.7,0-1.3,0.2-1.7,0.7
	c-0.4,0.5-0.7,1.1-0.7,1.9V59H847.6z M869.8,59V45.6h3.4V48h0.1c0.3-0.8,0.8-1.5,1.5-1.9c0.7-0.5,1.5-0.7,2.4-0.7
	c1,0,1.8,0.2,2.4,0.7c0.7,0.5,1.1,1.1,1.3,2h0.1c0.3-0.8,0.8-1.5,1.6-2c0.7-0.5,1.6-0.7,2.6-0.7c1.3,0,2.4,0.4,3.2,1.2
	c0.8,0.8,1.2,1.9,1.2,3.3V59h-3.6v-8.2c0-0.8-0.2-1.4-0.6-1.8c-0.4-0.4-0.9-0.6-1.7-0.6c-0.7,0-1.3,0.2-1.7,0.7
	c-0.4,0.5-0.6,1.1-0.6,1.8V59h-3.4v-8.4c0-0.7-0.2-1.3-0.6-1.7c-0.4-0.4-0.9-0.6-1.6-0.6c-0.7,0-1.3,0.2-1.7,0.7
	c-0.4,0.5-0.7,1.1-0.7,1.9V59H869.8z M891.9,59V45.6h3.6V59H891.9z M893.7,44.1c-0.5,0-1-0.2-1.4-0.5c-0.4-0.4-0.6-0.8-0.6-1.3
	c0-0.5,0.2-1,0.6-1.3c0.4-0.4,0.8-0.5,1.4-0.5c0.5,0,1,0.2,1.4,0.5c0.4,0.3,0.6,0.8,0.6,1.3c0,0.5-0.2,1-0.6,1.3
	C894.7,43.9,894.3,44.1,893.7,44.1z M897.7,49.5c0-1.3,0.5-2.3,1.5-3c1-0.8,2.4-1.1,4.1-1.1c1.7,0,3,0.4,4,1.2
	c1,0.8,1.5,1.8,1.6,3.1h-3.3c0-0.5-0.3-0.9-0.7-1.3c-0.4-0.3-1-0.5-1.6-0.5c-0.6,0-1.2,0.1-1.5,0.4c-0.4,0.3-0.6,0.6-0.6,1
	c0,0.7,0.6,1.1,1.8,1.4l2.5,0.5c1.4,0.3,2.3,0.7,2.9,1.3c0.6,0.6,0.9,1.3,0.9,2.3c0,1.3-0.5,2.4-1.6,3.1c-1.1,0.8-2.5,1.2-4.3,1.2
	c-1.7,0-3.2-0.4-4.2-1.2c-1.1-0.8-1.6-1.8-1.7-3.1h3.5c0.1,0.6,0.4,1,0.8,1.3c0.4,0.3,1,0.5,1.8,0.5c0.7,0,1.3-0.1,1.7-0.4
	c0.4-0.3,0.6-0.6,0.6-1c0-0.4-0.1-0.6-0.4-0.8c-0.3-0.2-0.7-0.4-1.3-0.5l-2.5-0.6C899,52.8,897.7,51.5,897.7,49.5z M910.9,49.5
	c0-1.3,0.5-2.3,1.5-3c1-0.8,2.4-1.1,4.1-1.1c1.7,0,3,0.4,4,1.2c1,0.8,1.5,1.8,1.6,3.1h-3.3c0-0.5-0.3-0.9-0.7-1.3
	c-0.4-0.3-1-0.5-1.6-0.5c-0.6,0-1.2,0.1-1.5,0.4c-0.4,0.3-0.6,0.6-0.6,1c0,0.7,0.6,1.1,1.8,1.4l2.5,0.5c1.4,0.3,2.3,0.7,2.9,1.3
	c0.6,0.6,0.9,1.3,0.9,2.3c0,1.3-0.5,2.4-1.6,3.1c-1.1,0.8-2.5,1.2-4.3,1.2c-1.8,0-3.2-0.4-4.2-1.2c-1.1-0.8-1.6-1.8-1.7-3.1h3.5
	c0.1,0.6,0.4,1,0.8,1.3c0.4,0.3,1,0.5,1.8,0.5c0.7,0,1.3-0.1,1.7-0.4c0.4-0.3,0.6-0.6,0.6-1c0-0.4-0.1-0.6-0.4-0.8
	c-0.3-0.2-0.7-0.4-1.3-0.5l-2.5-0.6C912.2,52.8,910.9,51.5,910.9,49.5z M924.4,59V45.6h3.6V59H924.4z M926.1,44.1
	c-0.5,0-1-0.2-1.4-0.5c-0.4-0.4-0.6-0.8-0.6-1.3c0-0.5,0.2-1,0.6-1.3c0.4-0.4,0.8-0.5,1.4-0.5c0.5,0,1,0.2,1.4,0.5
	c0.4,0.3,0.6,0.8,0.6,1.3c0,0.5-0.2,1-0.6,1.3C927.1,43.9,926.7,44.1,926.1,44.1z M936.5,59.2c-2,0-3.7-0.6-4.8-1.9
	c-1.2-1.2-1.8-2.9-1.8-5.1c0-2.1,0.6-3.8,1.8-5.1c1.2-1.2,2.8-1.9,4.8-1.9c2,0,3.6,0.6,4.8,1.9c1.2,1.2,1.8,2.9,1.8,5.1
	c0,2.2-0.6,3.9-1.8,5.1C940.2,58.6,938.6,59.2,936.5,59.2z M934.3,55.4c0.5,0.7,1.3,1.1,2.2,1.1c0.9,0,1.7-0.4,2.2-1.1
	c0.5-0.7,0.8-1.8,0.8-3.1c0-1.3-0.3-2.3-0.8-3.1c-0.5-0.7-1.3-1.1-2.2-1.1c-0.9,0-1.7,0.4-2.2,1.1c-0.5,0.7-0.8,1.8-0.8,3.1
	C933.5,53.6,933.8,54.6,934.3,55.4z M945.1,59V45.6h3.4V48h0.1c0.8-1.7,2.2-2.6,4.3-2.6c1.5,0,2.7,0.4,3.5,1.3
	c0.9,0.9,1.3,2.1,1.3,3.7V59h-3.6v-7.9c0-0.9-0.2-1.6-0.7-2.1c-0.5-0.5-1.1-0.7-1.9-0.7c-0.9,0-1.5,0.3-2.1,0.8
	c-0.5,0.6-0.8,1.3-0.8,2.2V59H945.1z M962.6,62.3h-2.7l1-6.6h3.3L962.6,62.3z M976.4,59h-3.7V41.4h3.7V59z M979.1,59V45.6h3.4V48
	h0.1c0.8-1.7,2.2-2.6,4.3-2.6c1.5,0,2.7,0.4,3.5,1.3c0.9,0.9,1.3,2.1,1.3,3.7V59h-3.6v-7.9c0-0.9-0.2-1.6-0.7-2.1
	c-0.5-0.5-1.1-0.7-1.9-0.7c-0.9,0-1.5,0.3-2.1,0.8c-0.5,0.6-0.8,1.3-0.8,2.2V59H979.1z M993.9,49.5c0-1.3,0.5-2.3,1.5-3
	c1-0.8,2.4-1.1,4.1-1.1c1.7,0,3,0.4,4,1.2c1,0.8,1.5,1.8,1.6,3.1h-3.3c0-0.5-0.3-0.9-0.7-1.3c-0.4-0.3-1-0.5-1.7-0.5
	c-0.6,0-1.2,0.1-1.6,0.4c-0.4,0.3-0.6,0.6-0.6,1c0,0.7,0.6,1.1,1.8,1.4l2.5,0.5c1.3,0.3,2.3,0.7,2.9,1.3c0.6,0.6,0.9,1.3,0.9,2.3
	c0,1.3-0.6,2.4-1.6,3.1c-1.1,0.8-2.5,1.2-4.3,1.2c-1.8,0-3.2-0.4-4.2-1.2c-1.1-0.8-1.6-1.8-1.7-3.1h3.5c0.1,0.6,0.4,1,0.8,1.3
	c0.4,0.3,1,0.5,1.8,0.5c0.7,0,1.3-0.1,1.7-0.4c0.4-0.3,0.6-0.6,0.6-1c0-0.4-0.1-0.6-0.4-0.8c-0.3-0.2-0.7-0.4-1.3-0.5l-2.5-0.6
	C995.1,52.8,993.9,51.5,993.9,49.5z M1008.2,42.6h3.6v3h2.5v2.7h-2.5v6.5c0,1,0.5,1.5,1.6,1.5c0.3,0,0.6,0,0.9-0.1v2.6
	c-0.5,0.1-1.1,0.1-1.7,0.1c-1.6,0-2.7-0.3-3.3-0.9c-0.7-0.6-1-1.5-1-2.8v-7.1h-1.8v-2.7h1.8V42.6z M1021.4,56.6
	c0.8,0,1.5-0.2,2.1-0.7c0.6-0.5,0.8-1.1,0.8-1.8v-1l-2.8,0.2c-0.7,0-1.3,0.2-1.7,0.5c-0.4,0.3-0.6,0.7-0.6,1.2
	c0,0.5,0.2,0.9,0.6,1.2C1020.2,56.4,1020.7,56.6,1021.4,56.6z M1020.2,59.2c-1.3,0-2.4-0.4-3.2-1.1c-0.9-0.7-1.3-1.7-1.3-2.9
	c0-1.2,0.5-2.2,1.3-2.8c0.9-0.7,2.2-1.1,3.9-1.2l3.4-0.2V50c0-0.6-0.2-1.1-0.6-1.5c-0.4-0.4-1-0.5-1.7-0.5c-0.6,0-1.2,0.2-1.6,0.5
	c-0.4,0.3-0.7,0.7-0.8,1.2h-3.3c0-1.3,0.6-2.3,1.7-3.1c1.1-0.8,2.4-1.2,4.1-1.2c1.7,0,3.1,0.4,4.2,1.2c1,0.8,1.6,1.9,1.6,3.2V59
	h-3.4v-2.1h-0.1c-0.4,0.7-0.9,1.2-1.7,1.6C1021.9,59,1021.1,59.2,1020.2,59.2z M1030.2,59V45.6h3.4V48h0.1c0.8-1.7,2.2-2.6,4.3-2.6
	c1.5,0,2.7,0.4,3.5,1.3c0.8,0.9,1.3,2.1,1.3,3.7V59h-3.6v-7.9c0-0.9-0.2-1.6-0.7-2.1c-0.4-0.5-1.1-0.7-1.9-0.7
	c-0.9,0-1.6,0.3-2.1,0.8c-0.5,0.6-0.8,1.3-0.8,2.2V59H1030.2z M1046.2,42.6h3.6v3h2.5v2.7h-2.5v6.5c0,1,0.5,1.5,1.6,1.5
	c0.3,0,0.6,0,0.9-0.1v2.6c-0.5,0.1-1.1,0.1-1.7,0.1c-1.6,0-2.7-0.3-3.3-0.9c-0.7-0.6-1-1.5-1-2.8v-7.1h-1.8v-2.7h1.8V42.6z
	 M1064.7,59.2c-1.7,0-3-0.6-4-1.9c-1-1.2-1.5-2.9-1.5-5c0-2.1,0.5-3.8,1.5-5c1-1.2,2.3-1.9,4-1.9c1,0,1.8,0.2,2.5,0.7
	c0.7,0.4,1.3,1,1.6,1.8h0.1v-7.3h3.6V59h-3.5v-2.3h-0.1c-0.3,0.7-0.9,1.3-1.6,1.8C1066.5,58.9,1065.7,59.2,1064.7,59.2z
	 M1065.9,48.3c-0.9,0-1.7,0.4-2.2,1.1c-0.6,0.7-0.8,1.7-0.8,2.9c0,1.2,0.3,2.2,0.8,2.9c0.5,0.7,1.3,1.1,2.2,1.1
	c0.9,0,1.7-0.4,2.2-1.1c0.6-0.7,0.8-1.7,0.8-2.9c0-1.2-0.3-2.2-0.8-2.9C1067.5,48.6,1066.8,48.3,1065.9,48.3z M1080.9,48
	c-0.8,0-1.5,0.3-2,0.8c-0.5,0.5-0.8,1.2-0.9,2.1h5.8c0-0.9-0.3-1.6-0.8-2.1C1082.4,48.3,1081.8,48,1080.9,48z M1083.8,54.9h3.3
	c-0.2,1.3-0.8,2.4-2,3.1c-1.1,0.8-2.5,1.2-4.1,1.2c-2,0-3.7-0.6-4.8-1.8c-1.2-1.2-1.8-2.9-1.8-5.1s0.6-3.8,1.7-5.1
	c1.2-1.3,2.7-1.9,4.7-1.9c1.9,0,3.5,0.6,4.6,1.8c1.2,1.2,1.7,2.8,1.7,4.9v1.1h-9.3v0.2c0,1,0.3,1.8,0.9,2.4c0.6,0.6,1.3,0.9,2.3,0.9
	c0.7,0,1.3-0.1,1.8-0.4C1083.3,55.8,1083.7,55.4,1083.8,54.9z M1089.2,59V40.5h3.6V59H1089.2z M1095.4,59V45.6h3.6V59H1095.4z
	 M1097.2,44.1c-0.5,0-1-0.2-1.4-0.5c-0.4-0.4-0.6-0.8-0.6-1.3c0-0.5,0.2-1,0.6-1.3c0.4-0.4,0.8-0.5,1.4-0.5c0.5,0,1,0.2,1.4,0.5
	c0.4,0.3,0.6,0.8,0.6,1.3c0,0.5-0.2,1-0.6,1.3C1098.2,43.9,1097.7,44.1,1097.2,44.1z M1113.6,45.6L1109,59h-4l-4.7-13.4h3.8
	l2.9,10.3h0.1l2.8-10.3H1113.6z M1120.5,48c-0.8,0-1.5,0.3-2,0.8c-0.5,0.5-0.8,1.2-0.9,2.1h5.8c0-0.9-0.3-1.6-0.8-2.1
	C1122.1,48.3,1121.4,48,1120.5,48z M1123.4,54.9h3.3c-0.2,1.3-0.8,2.4-2,3.1c-1.1,0.8-2.5,1.2-4.1,1.2c-2,0-3.7-0.6-4.8-1.8
	c-1.2-1.2-1.8-2.9-1.8-5.1s0.6-3.8,1.8-5.1c1.2-1.3,2.7-1.9,4.7-1.9c1.9,0,3.5,0.6,4.6,1.8c1.2,1.2,1.7,2.8,1.7,4.9v1.1h-9.3v0.2
	c0,1,0.3,1.8,0.9,2.4c0.6,0.6,1.3,0.9,2.3,0.9c0.7,0,1.3-0.1,1.8-0.4C1122.9,55.8,1123.3,55.4,1123.4,54.9z M1128.8,59V45.6h3.4V48
	h0.1c0.2-0.8,0.6-1.5,1.2-1.9c0.6-0.4,1.2-0.7,2-0.7c0.4,0,0.7,0,1,0.1v3.2c-0.3-0.1-0.8-0.2-1.3-0.2c-0.9,0-1.6,0.3-2.1,0.8
	c-0.5,0.5-0.8,1.3-0.8,2.2V59H1128.8z M1139.8,63.9c-0.7,0-1.2,0-1.4,0v-2.8c0.1,0,0.4,0,0.8,0c0.7,0,1.2-0.1,1.6-0.4
	c0.4-0.2,0.7-0.6,0.8-1.2l0.1-0.5l-4.7-13.5h3.9l2.9,10.5h0.1l2.9-10.5h3.8l-4.7,13.7c-0.6,1.7-1.3,2.9-2.2,3.6
	C1142.7,63.6,1141.4,63.9,1139.8,63.9z M1153.9,58.6c-0.4,0.4-0.8,0.6-1.4,0.6c-0.6,0-1-0.2-1.4-0.6c-0.4-0.4-0.6-0.8-0.6-1.4
	c0-0.5,0.2-1,0.6-1.4c0.4-0.4,0.8-0.6,1.4-0.6c0.5,0,1,0.2,1.4,0.6c0.4,0.4,0.6,0.8,0.6,1.4C1154.5,57.7,1154.3,58.2,1153.9,58.6z"
	/>
<path class="st10" d="M1256,50.5c0-0.4,0.2-0.8,0.4-1.1c0.3-0.3,0.7-0.4,1.1-0.4h17.4l-6.4-6.4c-0.1-0.1-0.2-0.3-0.3-0.5
	c-0.1-0.2-0.1-0.4-0.1-0.6c0-0.2,0-0.4,0.1-0.6c0.1-0.2,0.2-0.3,0.3-0.5c0.1-0.1,0.3-0.2,0.5-0.3c0.2-0.1,0.4-0.1,0.6-0.1
	s0.4,0,0.6,0.1c0.2,0.1,0.4,0.2,0.5,0.3l9,9c0.1,0.1,0.2,0.3,0.3,0.5c0.1,0.2,0.1,0.4,0.1,0.6s0,0.4-0.1,0.6
	c-0.1,0.2-0.2,0.3-0.3,0.5l-9,9c-0.1,0.1-0.3,0.2-0.5,0.3c-0.2,0.1-0.4,0.1-0.6,0.1s-0.4,0-0.6-0.1c-0.2-0.1-0.3-0.2-0.5-0.3
	c-0.3-0.3-0.4-0.7-0.4-1.1c0-0.2,0-0.4,0.1-0.6c0.1-0.2,0.2-0.3,0.3-0.5l6.4-6.4h-17.4c-0.4,0-0.8-0.2-1.1-0.4
	C1256.2,51.3,1256,50.9,1256,50.5z"/>
</svg>
